<svg width="59" height="50" viewBox="0 0 59 50" fill="none" xmlns="http://www.w3.org/2000/svg">
<path fill-rule="evenodd" clip-rule="evenodd" d="M0 6.65618C-5.66536e-09 6.27545 0.0748852 5.89845 0.22038 5.5467C0.365875 5.19496 0.579129 4.87535 0.847969 4.60613C1.11681 4.33692 1.43597 4.12336 1.78722 3.97767C2.13848 3.83197 2.51495 3.75698 2.89515 3.75698C3.27534 3.75698 3.65181 3.83197 4.00307 3.97767C4.35433 4.12336 4.67348 4.33692 4.94232 4.60613C5.21116 4.87535 5.42442 5.19496 5.56991 5.5467C5.71541 5.89845 5.79029 6.27545 5.79029 6.65618V44.1968H56.1025C56.8709 44.1968 57.6079 44.5025 58.1513 45.0466C58.6947 45.5908 59 46.3288 59 47.0984C59 47.8679 58.6947 48.606 58.1513 49.1501C57.6079 49.6943 56.8709 50 56.1025 50H0V6.65618ZM48.9246 3.43004L47.4842 1.56454C47.3757 1.44302 47.2998 1.29587 47.2637 1.13691C47.2276 0.977953 47.2325 0.812411 47.2778 0.655838C47.5322 -0.0990124 48.3965 -0.00766102 49.0158 0.0163788C50.7683 0.141386 54.6429 0.420248 55.5455 0.453904C55.6941 0.449349 55.8417 0.479402 55.9767 0.541694C56.1117 0.603987 56.2305 0.696818 56.3235 0.812877C56.4166 0.928936 56.4815 1.06505 56.5132 1.21051C56.5448 1.35596 56.5422 1.50678 56.5058 1.65109C56.3233 2.5646 55.7424 6.72349 55.4399 8.38224C55.3343 8.9592 55.1614 9.71405 54.4268 9.76694C54.2651 9.77252 54.1046 9.73711 53.9603 9.66398C53.8159 9.59086 53.6923 9.48239 53.601 9.34864L52.1606 7.48315L51.5701 6.73311L44.3586 12.2094V12.3344C44.3586 13.4897 43.9003 14.5976 43.0846 15.4146C42.2688 16.2315 41.1624 16.6904 40.0087 16.6904C38.855 16.6904 37.7486 16.2315 36.9329 15.4146C36.1171 14.5976 35.6588 13.4897 35.6588 12.3344C35.6588 12.2382 35.6588 12.1421 35.6588 12.0459L30.6223 8.39666C29.8423 8.937 28.9072 9.20694 27.9596 9.16527C27.0121 9.1236 26.1042 8.77261 25.3745 8.16588L20.4773 11.6565C20.5814 12.0227 20.6379 12.4008 20.6453 12.7815C20.6406 13.7126 20.3361 14.6173 19.7771 15.3613C19.218 16.1053 18.4342 16.6489 17.5421 16.9113C16.65 17.1737 15.6972 17.141 14.8252 16.818C13.9531 16.495 13.2084 15.8989 12.7016 15.1183C12.1947 14.3377 11.9529 13.4142 12.0119 12.485C12.0709 11.5558 12.4276 10.6704 13.0291 9.96034C13.6305 9.25031 14.4447 8.75349 15.3506 8.54369C16.2564 8.33388 17.2057 8.42227 18.0575 8.79573L23.8189 4.68972C23.9206 3.59974 24.4284 2.58806 25.2412 1.85601C26.054 1.12396 27.1123 0.725232 28.2054 0.739173C29.2985 0.753114 30.3463 1.1787 31.1402 1.93124C31.9342 2.68378 32.4161 3.70809 32.49 4.80031C32.49 4.89646 32.49 4.99262 32.49 5.08398L37.5361 8.73803C38.2821 8.21882 39.1718 7.94659 40.0803 7.95952C40.9887 7.97245 41.8703 8.26991 42.6014 8.81015L49.2031 3.78582L48.9246 3.43004V3.43004ZM48.8814 14.6711H54.8781C55.0441 14.6711 55.2034 14.7368 55.3212 14.8538C55.439 14.9709 55.5058 15.1299 55.5071 15.2961V38.634C55.5058 38.8006 55.4392 38.9601 55.3215 39.0779C55.2038 39.1958 55.0446 39.2626 54.8781 39.2638H48.8814C48.7988 39.2638 48.717 39.2475 48.6407 39.2159C48.5644 39.1842 48.4951 39.1378 48.4367 39.0793C48.3782 39.0208 48.3319 38.9514 48.3003 38.875C48.2687 38.7986 48.2524 38.7167 48.2524 38.634V15.2961C48.2537 15.1299 48.3205 14.9709 48.4383 14.8538C48.5562 14.7368 48.7154 14.6711 48.8814 14.6711ZM37.0127 22.6667H43.0095C43.0921 22.6667 43.1739 22.683 43.2502 22.7147C43.3265 22.7463 43.3958 22.7927 43.4542 22.8512C43.5126 22.9097 43.559 22.9791 43.5906 23.0555C43.6222 23.1319 43.6384 23.2138 43.6384 23.2966V38.634C43.6372 38.8006 43.5705 38.9601 43.4528 39.0779C43.3352 39.1958 43.1759 39.2626 43.0095 39.2638H37.0127C36.9301 39.2638 36.8484 39.2475 36.772 39.2159C36.6957 39.1842 36.6264 39.1378 36.568 39.0793C36.5096 39.0208 36.4633 38.9514 36.4316 38.875C36.4 38.7986 36.3838 38.7167 36.3838 38.634V23.2966C36.3838 23.1295 36.45 22.9693 36.568 22.8512C36.6859 22.7331 36.8459 22.6667 37.0127 22.6667V22.6667ZM25.1393 14.6711H31.1408C31.3064 14.6711 31.4651 14.7369 31.5822 14.8541C31.6992 14.9713 31.765 15.1303 31.765 15.2961V38.634C31.7638 38.7998 31.6977 38.9586 31.5811 39.0763C31.4644 39.194 31.3064 39.2613 31.1408 39.2638H25.1393C24.9729 39.2626 24.8136 39.1958 24.6959 39.0779C24.5782 38.9601 24.5116 38.8006 24.5103 38.634V15.2961C24.5116 15.1299 24.5784 14.9709 24.6962 14.8538C24.814 14.7368 24.9733 14.6711 25.1393 14.6711V14.6711ZM13.2706 23.9552H19.2674C19.35 23.9552 19.4317 23.9715 19.5081 24.0032C19.5844 24.0348 19.6537 24.0812 19.7121 24.1397C19.7705 24.1982 19.8168 24.2676 19.8484 24.3441C19.8801 24.4205 19.8963 24.5024 19.8963 24.5851V38.634C19.8951 38.8006 19.8284 38.9601 19.7107 39.0779C19.593 39.1958 19.4338 39.2626 19.2674 39.2638H13.2706C13.188 39.2638 13.1062 39.2475 13.0299 39.2159C12.9536 39.1842 12.8843 39.1378 12.8259 39.0793C12.7675 39.0208 12.7211 38.9514 12.6895 38.875C12.6579 38.7986 12.6417 38.7167 12.6417 38.634V24.5851C12.6417 24.418 12.7079 24.2578 12.8259 24.1397C12.9438 24.0216 13.1038 23.9552 13.2706 23.9552V23.9552Z" fill="white"/>
</svg>
