<svg width="65" height="53" viewBox="0 0 65 53" fill="none" xmlns="http://www.w3.org/2000/svg">
<path d="M31.002 5.19796C31.1606 5.04453 31.3409 4.96844 31.5453 4.96844C31.657 4.96844 31.7548 4.98465 31.836 5.01833C31.9211 5.05451 32.0049 5.11189 32.0849 5.19172L33.8013 6.87323C33.937 7.00588 34.1158 7.08752 34.3065 7.10393C34.4972 7.12034 34.6877 7.07048 34.8448 6.96305C35.0416 6.83955 35.2511 6.71731 35.4732 6.60005C35.7106 6.47531 35.9417 6.36179 36.1689 6.25951C36.4063 6.15348 36.6488 6.05244 36.8926 5.96013C37.1109 5.87655 37.3598 5.78923 37.634 5.70067C37.9793 5.58965 38.1977 5.27405 38.1977 4.93476L38.1977 2.35885C38.1977 2.24534 38.2154 2.14554 38.251 2.06072C38.284 1.98089 38.3398 1.9023 38.416 1.82621C38.4922 1.75136 38.5722 1.69648 38.6547 1.66404C38.7397 1.63036 38.8426 1.6129 38.9581 1.6129L42.2487 1.6129C42.3554 1.6129 42.4493 1.62912 42.5293 1.66155C42.6156 1.69648 42.702 1.75511 42.787 1.83619C42.8619 1.90978 42.9178 1.98712 42.9521 2.06571C42.9863 2.14929 43.0028 2.24783 43.0028 2.35885L43.0028 4.71771C43.0028 5.11438 43.2936 5.44245 43.677 5.51106C43.9321 5.57094 44.1721 5.63455 44.3955 5.70191L44.4336 5.71189C44.6634 5.783 44.8944 5.86158 45.1255 5.95015L45.1674 5.96512C45.3923 6.0518 45.6146 6.14498 45.8339 6.24454C46.0738 6.35431 46.2973 6.46408 46.5029 6.57385C46.8267 6.74724 47.2164 6.68238 47.4665 6.44163L49.4089 4.55679C49.4711 4.49941 49.5371 4.45326 49.6082 4.42332C49.6831 4.39089 49.7745 4.37342 49.8824 4.37342C49.9878 4.37342 50.083 4.39213 50.1655 4.42581C50.2557 4.46448 50.3445 4.52561 50.4296 4.60669L52.7274 6.86949C52.8836 7.02667 52.961 7.2038 52.961 7.40588C52.961 7.51565 52.9445 7.6117 52.9103 7.69154C52.8734 7.77386 52.815 7.85619 52.7338 7.93478L51.0225 9.62128C50.8875 9.75464 50.8044 9.93032 50.7877 10.1177C50.771 10.3051 50.8217 10.4923 50.9311 10.6467C51.0567 10.84 51.1812 11.0471 51.3005 11.2641C51.4274 11.4974 51.543 11.7257 51.6471 11.9477C51.755 12.181 51.8578 12.4192 51.9518 12.6587C52.0368 12.8733 52.1257 13.1178 52.2158 13.3872C52.3288 13.7265 52.65 13.9411 52.9953 13.9411L55.6169 13.9423C55.7324 13.9423 55.834 13.9585 55.9203 13.9935C56.0054 14.0271 56.0854 14.0808 56.1577 14.1531L56.1615 14.1556C56.2352 14.228 56.2885 14.3066 56.324 14.3901C56.3583 14.475 56.3761 14.5748 56.3761 14.6883L56.3761 17.9216C56.3761 18.0263 56.3596 18.1186 56.3266 18.1972C56.291 18.2821 56.2326 18.3656 56.1514 18.448C56.0765 18.5228 55.9965 18.5764 55.914 18.6114L55.8797 18.6251C55.8061 18.6513 55.7185 18.6638 55.6169 18.6638L53.2162 18.6638C52.8138 18.6638 52.4786 18.9482 52.4088 19.3249C52.3479 19.5756 52.2831 19.8114 52.2146 20.0322L52.2044 20.0683C52.1333 20.2941 52.0521 20.5212 51.9619 20.7482C51.8743 20.9727 51.7728 21.211 51.6585 21.4592C51.5417 21.7124 51.4287 21.9432 51.3208 22.1465C51.1507 22.4646 51.2218 22.8463 51.4693 23.0871L53.38 24.957C53.4396 25.0181 53.4854 25.0842 53.5158 25.154C53.5488 25.2276 53.5666 25.3175 53.5666 25.4222C53.5666 25.527 53.5476 25.6206 53.5133 25.7004C53.4739 25.7902 53.4117 25.8775 53.3279 25.9611L51.0377 28.2376C50.9577 28.31 50.8727 28.3636 50.7863 28.3973C50.6975 28.431 50.5959 28.4485 50.4804 28.4485C50.3674 28.4485 50.2646 28.431 50.1744 28.3961L50.1452 28.3848C50.0678 28.3524 49.9954 28.3038 49.9269 28.2414L48.232 26.5499C47.9413 26.2592 47.4817 26.2318 47.158 26.4688C46.979 26.5811 46.7759 26.6971 46.5537 26.8156C46.3163 26.9416 46.084 27.0538 45.858 27.1561C45.6206 27.2634 45.3781 27.3632 45.1344 27.4568C44.916 27.5391 44.6672 27.6264 44.393 27.715C44.0477 27.8272 43.8293 28.1428 43.8293 28.4809L43.8293 31.0568C43.8293 31.1703 43.8115 31.2701 43.776 31.3549C43.743 31.436 43.6871 31.5146 43.6109 31.5894C43.5348 31.6643 43.4535 31.7192 43.3723 31.7516C43.2859 31.7865 43.1844 31.804 43.0688 31.804L39.7782 31.804C39.6716 31.804 39.5776 31.7865 39.4977 31.7541C39.4113 31.7192 39.325 31.6605 39.2399 31.5795C39.1663 31.5071 39.1117 31.4298 39.0774 31.3487L39.0622 31.3163C39.0368 31.2439 39.0229 31.1566 39.0229 31.0568L39.0229 28.6979C39.0229 28.3025 38.7334 27.9732 38.3513 27.9046C38.0961 27.8447 37.8536 27.7811 37.6302 27.7137L37.5934 27.7037C37.3636 27.6339 37.1313 27.5541 36.9015 27.4667C36.6729 27.3807 36.4317 27.2809 36.1791 27.1686C35.9201 27.0538 35.6865 26.9428 35.4796 26.8356C35.3248 26.7565 35.1484 26.728 34.976 26.7542C34.8036 26.7805 34.6442 26.8601 34.5211 26.9815L32.6473 28.8277C32.5762 28.9 32.5 28.9549 32.4175 28.9898L32.3781 29.0085C32.3096 29.031 32.2283 29.0422 32.1331 29.0422C32.0227 29.0422 31.9262 29.0248 31.8449 28.9898C31.7624 28.9549 31.6862 28.9 31.6151 28.8277L29.2792 26.5586C29.2056 26.4788 29.151 26.3965 29.1167 26.3104C29.0824 26.2231 29.0647 26.1233 29.0647 26.011C29.0647 25.8963 29.0824 25.7952 29.118 25.7066C29.1551 25.6177 29.2085 25.5361 29.2754 25.4659L30.9981 23.8018C31.1355 23.6685 31.2207 23.4918 31.2385 23.3029C31.2564 23.114 31.2059 22.9249 31.0959 22.769C30.9689 22.5756 30.8458 22.3698 30.7265 22.1515C30.6031 21.9276 30.4875 21.6996 30.3799 21.4679C30.272 21.2347 30.1691 20.9964 30.0752 20.7569C29.9901 20.5424 29.9013 20.2979 29.8111 20.0284C29.6969 19.6891 29.3757 19.4746 29.0316 19.4746L26.4101 19.4746C26.2945 19.4746 26.193 19.4571 26.1066 19.4222C26.0254 19.3898 25.9454 19.3349 25.868 19.26C25.7918 19.1852 25.7359 19.1066 25.7029 19.0255C25.6674 18.9419 25.6496 18.8421 25.6496 18.7274L25.6496 15.4941C25.6496 15.3893 25.6674 15.297 25.7004 15.2184C25.7359 15.1336 25.7956 15.0488 25.8781 14.9652C25.953 14.8916 26.0305 14.838 26.113 14.8055C26.1968 14.7706 26.2971 14.7531 26.4101 14.7531L28.8107 14.7531C29.2195 14.7531 29.5572 14.4587 29.6207 14.0758C29.7409 13.6021 29.8901 13.1359 30.0676 12.6799L30.0815 12.6388C30.173 12.4043 30.2682 12.181 30.3647 11.9726C30.47 11.7456 30.5817 11.5261 30.6998 11.314C30.8763 10.9959 30.8103 10.613 30.5652 10.3672L28.6787 8.48738C28.6013 8.41503 28.5441 8.34019 28.5099 8.26285C28.4769 8.18925 28.4604 8.09944 28.4604 7.99341C28.4604 7.88862 28.4781 7.79632 28.5137 7.71523C28.5518 7.62667 28.614 7.53935 28.6978 7.45577L31.002 5.19796V5.19796ZM59.9371 46.7205L34.3599 46.7205C31.9643 46.7205 31.9858 50.2819 34.3599 50.2819L59.9371 50.2819C62.3302 50.2819 62.3137 46.7205 59.9371 46.7205ZM60.4741 44.0012L4.52588 44.0012C2.35117 44.0012 0.959769 45.1737 0.349125 46.6744C0.115531 47.2482 3.44441e-06 47.8706 3.3901e-06 48.4919C3.33579e-06 49.1131 0.118068 49.7368 0.351662 50.3093L0.3669 50.3443C0.98897 51.8374 2.3791 53 4.52588 53L60.4741 53C62.6476 53 64.039 51.8274 64.6509 50.3256C64.8845 49.753 65 49.1293 65 48.5081C65 47.8881 64.8819 47.2669 64.6496 46.6931C64.0352 45.1812 62.6412 44.0012 60.4741 44.0012V44.0012ZM4.52588 45.2112L60.4741 45.2112C62.0572 45.2112 63.0703 46.0569 63.5096 47.1384C63.6848 47.57 63.7736 48.039 63.7736 48.5081C63.7736 48.9771 63.686 49.4461 63.5108 49.8765C63.0741 50.9518 62.0636 51.7913 60.4741 51.7913L4.52588 51.7913C2.95547 51.7913 1.94619 50.958 1.50186 49.889L1.49043 49.8615C1.31524 49.4299 1.22637 48.9596 1.22637 48.4919C1.22637 48.0228 1.3127 47.5538 1.48916 47.1234C1.92588 46.0494 2.93516 45.2112 4.52588 45.2112V45.2112ZM12.2104 21.9956C12.4122 21.8559 12.6293 21.8072 12.8642 21.8472C13.0978 21.8871 13.2882 22.0056 13.4278 22.2052L14.1934 23.2717C14.4701 23.1569 14.7583 23.0634 15.0554 22.9873C15.3512 22.9112 15.6521 22.8526 15.9529 22.8089L16.2005 21.4118C16.2424 21.176 16.3592 20.9914 16.5547 20.8567C16.7502 20.7207 16.9673 20.6758 17.2072 20.7158L18.9922 21.0226C19.2207 21.0613 19.4048 21.176 19.5482 21.3694C19.6892 21.5627 19.7387 21.7748 19.6968 22.0106L19.4695 23.2904C19.7526 23.4076 20.0267 23.5448 20.2897 23.7008C20.5455 23.8506 20.7906 24.0173 21.0234 24.1998L22.227 23.3815C22.4187 23.2418 22.6294 23.1894 22.8655 23.2293C23.1004 23.2692 23.287 23.3902 23.4305 23.5873L24.4601 25.0318C24.6035 25.2314 24.653 25.4434 24.6124 25.6742C24.5718 25.9037 24.4512 26.0908 24.248 26.2281L23.1626 26.9802C23.2794 27.2522 23.3746 27.5353 23.4521 27.8272C23.5295 28.1191 23.5892 28.4135 23.6336 28.7092L25.0555 28.9524C25.2954 28.9936 25.4833 29.1083 25.6204 29.3004C25.7588 29.4938 25.8045 29.7058 25.7639 29.9416L25.4516 31.6955C25.4122 31.92 25.2954 32.1009 25.0986 32.2418C24.9019 32.3803 24.686 32.4289 24.4461 32.3878L23.1436 32.1645C23.0243 32.4426 22.8847 32.7119 22.7259 32.9703C22.5685 33.2273 22.3983 33.4743 22.2155 33.7088L23.0521 34.8751C23.1931 35.0622 23.2464 35.2693 23.2058 35.5026C23.1639 35.7321 23.042 35.9155 22.8414 36.0564L21.3688 37.0868C21.1669 37.2153 20.9523 37.2577 20.7175 37.2178C20.4839 37.1778 20.2922 37.0656 20.1513 36.8772L19.3883 35.7932C19.1115 35.9092 18.8233 36.0015 18.5263 36.0776C18.2292 36.155 17.9296 36.2123 17.6287 36.256L17.3812 37.6531C17.3393 37.8889 17.2225 38.0735 17.0257 38.2082C16.8302 38.3442 16.6144 38.3903 16.3744 38.3492L14.5895 38.0435C14.3609 38.0036 14.1769 37.8889 14.0334 37.6955C13.8925 37.5022 13.843 37.2901 13.8849 37.0543L14.1121 35.7745C13.829 35.6573 13.5549 35.5201 13.292 35.3641C13.0305 35.2094 12.7791 35.0423 12.5404 34.8626L11.3534 35.6847C11.163 35.8231 10.9484 35.8755 10.7085 35.8344C10.466 35.7932 10.2832 35.6722 10.1512 35.4789L9.10254 34.0306C8.97178 33.8335 8.92862 33.6215 8.96924 33.3907C9.00987 33.1612 9.12539 32.9741 9.31455 32.8343L10.419 32.0847C10.301 31.8127 10.207 31.5296 10.1296 31.2377C10.0509 30.9458 9.99248 30.6514 9.94805 30.357L8.52618 30.1125C8.28623 30.0713 8.09834 29.9566 7.96123 29.7645C7.82285 29.5711 7.77588 29.3591 7.81778 29.1233L8.13008 27.3694C8.16944 27.1462 8.28624 26.964 8.48301 26.8231C8.67979 26.6846 8.89561 26.636 9.13555 26.6771L10.4381 26.9004C10.5574 26.6297 10.6958 26.364 10.8532 26.1033C11.0059 25.8487 11.1764 25.6049 11.3636 25.3736L10.5295 24.191C10.3886 24.0039 10.334 23.7956 10.3759 23.5623C10.4165 23.3328 10.5397 23.1494 10.7402 23.0085L12.2104 21.9956V21.9956ZM17.3113 26.5973C16.9013 26.5274 16.5014 26.5374 16.1065 26.626C15.7143 26.7183 15.3588 26.873 15.0427 27.0888C14.7278 27.3083 14.46 27.584 14.2391 27.9158C14.0194 28.2501 13.8747 28.6181 13.8036 29.021C13.7325 29.4239 13.7414 29.8169 13.8328 30.2048C13.9268 30.5903 14.0829 30.9383 14.3038 31.2501C14.5273 31.5595 14.8078 31.8227 15.1455 32.0397C15.4868 32.2554 15.869 32.4009 16.269 32.4676C16.6791 32.5375 17.0803 32.5287 17.4751 32.4389C17.8674 32.3466 18.2216 32.1919 18.539 31.9761C18.8538 31.7566 19.1217 31.4809 19.3426 31.1491C19.5609 30.8148 19.7057 30.4468 19.778 30.0439C19.8491 29.6422 19.8402 29.248 19.7488 28.8601C19.6549 28.4746 19.4975 28.1266 19.2766 27.8148C19.0544 27.5054 18.7738 27.2422 18.4361 27.0252C18.0959 26.8106 17.7214 26.6671 17.3113 26.5973V26.5973ZM31.5453 3.35553C30.8877 3.35553 30.3228 3.58755 29.8441 4.05782L27.5311 6.32811C27.3025 6.55639 27.1273 6.80961 27.0067 7.08654C26.8823 7.3722 26.8201 7.67532 26.8201 7.99341C26.8201 8.31773 26.8836 8.62085 27.0093 8.90526C27.1337 9.18219 27.314 9.43042 27.5463 9.64872L28.9834 11.0807L28.8768 11.3053C28.76 11.5585 28.6508 11.813 28.5518 12.0675L28.5353 12.1061C28.4362 12.3618 28.3423 12.6338 28.2522 12.9194L28.1836 13.1402L26.4101 13.1402C26.0813 13.1402 25.7728 13.2001 25.4846 13.3186C25.2002 13.4346 24.9438 13.6068 24.7152 13.8338L24.6987 13.85C24.474 14.0783 24.3039 14.3315 24.1871 14.6084C24.0678 14.8903 24.0094 15.186 24.0094 15.4941L24.0094 18.7274C24.0094 19.048 24.0678 19.3486 24.1833 19.6305C24.3026 19.9174 24.4778 20.1731 24.7076 20.4002C24.9387 20.6272 25.2002 20.7981 25.4909 20.9141C25.7766 21.0301 26.0838 21.0862 26.4101 21.0862L28.4515 21.0862L28.5492 21.337C28.6546 21.6039 28.7701 21.8709 28.892 22.1353C29.0202 22.411 29.1523 22.6717 29.2843 22.9137L29.3897 23.1008L28.0935 24.3545C27.8726 24.5827 27.705 24.8397 27.592 25.1204C27.4803 25.401 27.4231 25.6992 27.4231 26.011C27.4231 26.3216 27.479 26.616 27.592 26.8967C27.7024 27.1748 27.8688 27.4293 28.0871 27.6613L30.4332 29.9404C30.6579 30.1724 30.9131 30.3508 31.1975 30.4705C31.4856 30.5928 31.7979 30.6551 32.1331 30.6551C32.4327 30.6551 32.7171 30.6027 32.9862 30.4992L33.0649 30.4705C33.3506 30.3495 33.607 30.1699 33.833 29.9366L35.2638 28.5258L35.505 28.6356C35.7538 28.7453 36.023 28.8564 36.3111 28.9649C36.5688 29.0634 36.8367 29.1545 37.1135 29.2393L37.3826 29.3191L37.3826 31.0568C37.3826 31.3537 37.4359 31.6381 37.5413 31.9075L37.5642 31.9662C37.6822 32.2456 37.8574 32.4976 38.0872 32.7221L38.105 32.7395C38.3373 32.9591 38.5938 33.1262 38.8756 33.241C39.1638 33.3583 39.4634 33.4156 39.7782 33.4156L43.0688 33.4156C43.3951 33.4156 43.7023 33.3583 43.988 33.2435C44.28 33.1275 44.5402 32.9554 44.7713 32.7296C45.0011 32.5025 45.1763 32.2468 45.2943 31.9599C45.4124 31.6792 45.4695 31.3774 45.4695 31.0568L45.4695 29.0497L45.7247 28.9549C45.9964 28.8514 46.2693 28.7379 46.5372 28.6181C46.8165 28.4921 47.0831 28.3636 47.3294 28.2327L47.5186 28.1291L48.7944 29.4027C49.0153 29.6073 49.2591 29.7657 49.5244 29.8742L49.5714 29.8955C49.857 30.0052 50.1617 30.0614 50.4804 30.0614C50.7978 30.0614 51.0986 30.0065 51.383 29.8955C51.6661 29.7857 51.9264 29.6235 52.16 29.409L54.4946 27.0888C54.7244 26.8593 54.9009 26.606 55.0202 26.3304C55.1446 26.0447 55.2068 25.7416 55.2068 25.4222C55.2068 25.0979 55.1434 24.7948 55.0164 24.5116C54.9021 24.2547 54.7371 24.0214 54.5213 23.8106L53.041 22.3573L53.1527 22.1203C53.2645 21.8771 53.3762 21.6126 53.4879 21.3282C53.5869 21.0763 53.6809 20.8131 53.7659 20.5411L53.8472 20.2754L55.6169 20.2754C55.919 20.2754 56.2085 20.223 56.4827 20.1195L56.5424 20.097C56.8306 19.9798 57.0908 19.8039 57.3206 19.5731L57.3244 19.5694C57.5517 19.3386 57.723 19.0841 57.8398 18.8085C57.9592 18.5265 58.0176 18.2309 58.0176 17.9216L58.0176 14.6883C58.0176 14.3677 57.9592 14.0658 57.8424 13.7851C57.7269 13.5032 57.5517 13.2475 57.3193 13.0192L57.3155 13.0155C57.0832 12.7872 56.8229 12.6163 56.536 12.5016C56.2504 12.3868 55.9432 12.3294 55.6169 12.3294L53.5742 12.3294L53.4777 12.0787C53.3724 11.8117 53.2568 11.5448 53.1337 11.2803C53.0067 11.0047 52.8747 10.744 52.7414 10.502L52.6335 10.3099L53.8827 9.0799C54.1163 8.85288 54.2953 8.59716 54.4172 8.31399C54.5408 8.02672 54.6039 7.71778 54.6025 7.40588C54.6025 6.75847 54.3664 6.20337 53.8878 5.7331L51.5772 3.46156C51.3449 3.23578 51.0872 3.06364 50.8054 2.94514C50.5147 2.82289 50.2074 2.76177 49.8824 2.76177C49.5523 2.76177 49.2438 2.82538 48.9544 2.94888C48.6941 3.06115 48.4567 3.22331 48.2422 3.43537L46.7416 4.88736L46.5207 4.78382C46.2922 4.68028 46.0383 4.5755 45.7552 4.46698L45.7158 4.45076C45.4581 4.35222 45.1902 4.26115 44.9147 4.17758L44.6443 4.09774L44.6443 2.35885C44.6443 2.03702 44.5834 1.73265 44.4628 1.44949L44.4603 1.447C44.3409 1.16758 44.167 0.916845 43.9397 0.694806L43.922 0.677342C43.6897 0.456551 43.4319 0.289397 43.1514 0.174636C42.8632 0.0586264 42.5623 -1.96157e-06 42.2487 -1.98898e-06L38.9581 -2.27665e-06C38.6318 -2.30518e-06 38.3259 0.0573786 38.039 0.17214C37.747 0.28815 37.4867 0.460292 37.2557 0.686074C37.0246 0.913102 36.8507 1.17007 36.7314 1.45573C36.6146 1.73639 36.5562 2.03827 36.5562 2.35885L36.5562 4.36594L36.3022 4.46074C36.0306 4.56427 35.7589 4.67779 35.4897 4.79879C35.2092 4.92478 34.9439 5.05326 34.6976 5.18424L34.5021 5.29027L33.2503 4.06282C33.0192 3.83329 32.759 3.65741 32.4708 3.5389C32.1775 3.41666 31.8678 3.35553 31.5453 3.35553V3.35553ZM38.1761 10.1277C37.2849 10.5044 36.5117 11.0146 35.8655 11.6496C35.2193 12.2845 34.6988 13.0442 34.3154 13.9199L34.2888 13.9885C33.9298 14.8517 33.7452 15.7753 33.7454 16.7078C33.7454 17.6534 33.9358 18.6051 34.3154 19.4895L34.318 19.4958C34.6976 20.369 35.2181 21.1262 35.8655 21.7636L35.8681 21.7661C36.5168 22.4035 37.2887 22.9137 38.1761 23.2892L38.2446 23.3154C39.1236 23.6682 40.064 23.8496 41.0135 23.8493C41.9758 23.8493 42.9444 23.6621 43.8445 23.2892L43.8496 23.2879C44.7421 22.9112 45.5152 22.401 46.1614 21.7661C46.8076 21.1311 47.3269 20.3727 47.7115 19.497L47.7382 19.4284C48.0973 18.5648 48.2819 17.6407 48.2815 16.7078C48.2815 15.7623 48.0911 14.8105 47.7115 13.9261L47.709 13.9211C47.3281 13.0479 46.8089 12.2895 46.1614 11.6533L46.1589 11.6496C45.5102 11.0134 44.7383 10.5032 43.8509 10.1265L43.7811 10.1003C42.9 9.74477 41.9529 9.56639 41.0135 9.56639C40.0512 9.56639 39.0825 9.7535 38.1824 10.1265L38.1761 10.1277V10.1277ZM37.0259 12.7897C37.5261 12.2982 38.1266 11.9015 38.8235 11.6072C39.5078 11.3215 40.2581 11.1793 41.0135 11.1793C41.7511 11.1793 42.4823 11.3153 43.1552 11.5847L43.2034 11.6072C43.9029 11.9028 44.5047 12.2995 45.0023 12.7885C45.5 13.2774 45.9037 13.8687 46.2046 14.556C46.4953 15.2296 46.64 15.9656 46.64 16.7078C46.64 17.4326 46.5017 18.1523 46.2274 18.8135L46.2046 18.8609C45.905 19.5444 45.5013 20.1345 45.0011 20.6259C44.5009 21.1174 43.8991 21.5141 43.2034 21.8097C42.5191 22.0941 41.7688 22.2363 41.0135 22.2363C40.2759 22.2363 39.5446 22.1016 38.8718 21.8309L38.8235 21.8097C38.124 21.5128 37.5223 21.1174 37.0233 20.6284C36.5257 20.1382 36.1232 19.5469 35.8224 18.8609C35.5316 18.1873 35.3869 17.45 35.3869 16.7078C35.3869 15.9831 35.5253 15.2646 35.7995 14.6034L35.8224 14.556C36.122 13.8725 36.5257 13.2812 37.0259 12.7897V12.7897Z" fill="white"/>
</svg>
