<svg width="58" height="57" viewBox="0 0 58 57" fill="none" xmlns="http://www.w3.org/2000/svg">
<path d="M29.7282 3.68766C29.4784 3.7003 29.2286 3.66201 28.9941 3.57512C28.7595 3.48823 28.545 3.35455 28.3638 3.1822C28.1825 3.00985 28.0381 2.80243 27.9395 2.57256C27.8408 2.34268 27.79 2.09515 27.79 1.84501C27.79 1.59486 27.8408 1.34733 27.9395 1.11746C28.0381 0.887583 28.1825 0.680168 28.3638 0.507819C28.545 0.335469 28.7595 0.201785 28.9941 0.114893C29.2286 0.028 29.4784 -0.0102868 29.7282 0.00235945C35.9534 0.00190076 42.0047 2.05626 46.943 5.84661C51.8812 9.63696 55.4303 14.9513 57.0393 20.965C58.6484 26.9786 58.2275 33.3552 55.8419 39.1052C53.4564 44.8552 49.2396 49.6569 43.846 52.7653C38.4524 55.8737 32.1836 57.1148 26.0125 56.2961C19.8413 55.4774 14.113 52.6447 9.71646 48.2375C5.31992 43.8303 2.50104 38.0951 1.69728 31.922C0.893527 25.7489 2.14985 19.4831 5.27128 14.0971L3.25168 14.8709C2.6566 15.0968 1.99617 15.0771 1.41565 14.816C0.835143 14.555 0.38211 14.074 0.156219 13.4789C-0.0696717 12.8839 -0.0499179 12.2234 0.211135 11.6429C0.472188 11.0624 0.953157 10.6094 1.54823 10.3835L7.78634 8.02413C8.02394 7.9356 8.27388 7.88466 8.52717 7.87313C9.09802 7.77992 9.68329 7.89751 10.1738 8.20399C10.6644 8.51047 11.0267 8.98491 11.1932 9.53883L13.1515 15.9043C13.2531 16.2078 13.2929 16.5285 13.2683 16.8476C13.2438 17.1666 13.1555 17.4775 13.0087 17.7618C12.8619 18.0462 12.6595 18.2981 12.4136 18.5029C12.1677 18.7076 11.8832 18.8609 11.5769 18.9537C11.2707 19.0465 10.9489 19.077 10.6307 19.0432C10.3125 19.0095 10.0043 18.9123 9.72435 18.7573C9.44439 18.6023 9.19836 18.3927 9.00083 18.141C8.8033 17.8892 8.65828 17.6004 8.57436 17.2916L8.26293 16.2771C5.36894 21.4564 4.44634 27.5077 5.66544 33.314C6.88454 39.1203 10.163 44.2896 14.8957 47.8676C19.6283 51.4455 25.4956 53.1905 31.4143 52.7805C37.3331 52.3705 42.9036 49.8331 47.0977 45.6368C50.5332 42.2002 52.8727 37.8224 53.8206 33.0565C54.7685 28.2906 54.2822 23.3507 52.4233 18.8611C50.5643 14.3715 47.4161 10.5338 43.3765 7.83308C39.337 5.13232 34.5875 3.68973 29.7282 3.68766ZM23.0749 30.5842C21.5177 28.909 23.9054 26.4081 25.6371 27.9889C26.2506 28.5457 27.1377 29.362 27.7511 29.9141L33.7391 22.8361C35.3954 21.1279 37.9859 23.6383 36.3722 25.3606L29.1714 33.6985C28.843 34.0422 28.3942 34.2455 27.9192 34.2658C27.4442 34.286 26.9798 34.1216 26.6233 33.807C25.6135 32.8633 24.1319 31.4477 23.0702 30.57L23.0749 30.5842ZM19.0263 15.8619C18.816 15.4958 18.7598 15.0612 18.87 14.6537C18.9801 14.2462 19.2477 13.8992 19.6137 13.6889C19.9798 13.4787 20.4144 13.4224 20.8219 13.5326C21.2294 13.6428 21.5764 13.9103 21.7867 14.2764L22.5747 15.6448C22.7717 16.0094 22.8186 16.4365 22.7054 16.8351C22.5922 17.2337 22.3279 17.5724 21.9687 17.7791C21.6095 17.9857 21.1838 18.044 20.7823 17.9415C20.3808 17.839 20.0352 17.5838 19.819 17.2303L19.0263 15.8619ZM14.3076 22.2463C14.1263 22.1412 13.9675 22.0015 13.8403 21.8351C13.713 21.6687 13.6198 21.4789 13.5659 21.2764C13.512 21.074 13.4985 20.8629 13.5262 20.6553C13.5538 20.4476 13.6221 20.2475 13.7272 20.0662C13.8322 19.885 13.9719 19.7262 14.1383 19.5989C14.3047 19.4717 14.4945 19.3784 14.697 19.3245C14.8994 19.2706 15.1105 19.2571 15.3181 19.2848C15.5258 19.3125 15.7259 19.3808 15.9072 19.4858L17.2898 20.2927C17.471 20.3978 17.6298 20.5375 17.7571 20.7039C17.8843 20.8703 17.9776 21.0601 18.0315 21.2625C18.0854 21.465 18.0989 21.676 18.0712 21.8837C18.0435 22.0913 17.9752 22.2915 17.8702 22.4728C17.7651 22.654 17.6254 22.8128 17.459 22.9401C17.2926 23.0673 17.1028 23.1606 16.9004 23.2145C16.4915 23.3233 16.0562 23.2653 15.6901 23.0532L14.3217 22.2604L14.3076 22.2463ZM16.6197 38.4785C16.2551 38.6755 15.8281 38.7224 15.4294 38.6092C15.0308 38.496 14.6921 38.2317 14.4854 37.8725C14.2788 37.5133 14.2205 37.0877 14.323 36.6862C14.4255 36.2846 14.6807 35.939 15.0342 35.7228L16.4215 34.9207C16.7876 34.7104 17.2222 34.6542 17.6297 34.7644C18.0372 34.8745 18.3842 35.1421 18.5945 35.5081C18.8047 35.8742 18.861 36.3088 18.7508 36.7163C18.6406 37.1238 18.3731 37.4708 18.007 37.6811L16.6339 38.4691L16.6197 38.4785ZM12.9439 29.8528C12.5221 29.8528 12.1176 29.6852 11.8194 29.387C11.5212 29.0888 11.3537 28.6843 11.3537 28.2626C11.3537 27.8408 11.5212 27.4364 11.8194 27.1381C12.1176 26.8399 12.5221 26.6724 12.9439 26.6724H14.5293C14.9511 26.6724 15.3556 26.8399 15.6538 27.1381C15.952 27.4364 16.1195 27.8408 16.1195 28.2626C16.1195 28.6843 15.952 29.0888 15.6538 29.387C15.3556 29.6852 14.9511 29.8528 14.5293 29.8528H12.9439ZM30.7711 44.4807C30.7489 44.8881 30.5714 45.2715 30.2752 45.552C29.979 45.8326 29.5865 45.9889 29.1785 45.9889C28.7705 45.9889 28.3781 45.8326 28.0818 45.552C27.7856 45.2715 27.6081 44.8881 27.586 44.4807V42.9141C27.6081 42.5067 27.7856 42.1233 28.0818 41.8428C28.3781 41.5623 28.7705 41.4059 29.1785 41.4059C29.5865 41.4059 29.979 41.5623 30.2752 41.8428C30.5714 42.1233 30.7489 42.5067 30.7711 42.9141V44.4949V44.4807ZM27.586 12.0161C27.5742 11.7997 27.6066 11.5832 27.6813 11.3797C27.756 11.1762 27.8714 10.9901 28.0205 10.8327C28.1695 10.6754 28.3491 10.55 28.5482 10.4643C28.7473 10.3787 28.9618 10.3345 29.1785 10.3345C29.3953 10.3345 29.6097 10.3787 29.8088 10.4643C30.0079 10.55 30.1875 10.6754 30.3365 10.8327C30.4856 10.9901 30.601 11.1762 30.6757 11.3797C30.7504 11.5832 30.7829 11.7997 30.7711 12.0161V13.5969C30.7489 14.0043 30.5714 14.3877 30.2752 14.6682C29.979 14.9487 29.5865 15.1051 29.1785 15.1051C28.7705 15.1051 28.3781 14.9487 28.0818 14.6682C27.7856 14.3877 27.6081 14.0043 27.586 13.5969V12.0303V12.0161ZM22.4426 43.117C22.3443 43.3097 22.2079 43.4803 22.0416 43.6186C21.8752 43.7569 21.6826 43.8599 21.4752 43.9213C21.2678 43.9828 21.0501 44.0015 20.8354 43.9762C20.6206 43.9509 20.4132 43.8822 20.2258 43.7742C20.0383 43.6662 19.8749 43.5213 19.7452 43.3482C19.6156 43.1751 19.5225 42.9774 19.4717 42.7672C19.4208 42.557 19.4133 42.3386 19.4494 42.1254C19.4856 41.9121 19.5648 41.7085 19.6822 41.5268L20.4749 40.1584C20.5796 39.9775 20.719 39.8189 20.8849 39.6918C21.0509 39.5647 21.2403 39.4716 21.4423 39.4177C21.6443 39.3638 21.855 39.3502 22.0622 39.3777C22.2695 39.4052 22.4693 39.4733 22.6502 39.578C22.8312 39.6827 22.9897 39.8221 23.1168 39.9881C23.2439 40.1541 23.337 40.3435 23.3909 40.5455C23.4448 40.7474 23.4584 40.9581 23.4309 41.1653C23.4034 41.3726 23.3353 41.5724 23.2306 41.7533L22.4426 43.1217V43.117ZM39.3968 41.5268C39.5009 41.7081 39.5683 41.9081 39.5951 42.1153C39.622 42.3226 39.6077 42.5332 39.5531 42.735C39.4986 42.9367 39.4048 43.1258 39.2772 43.2913C39.1496 43.4569 38.9906 43.5957 38.8094 43.6998C38.6281 43.8039 38.4281 43.8713 38.2208 43.8981C38.0135 43.9249 37.803 43.9106 37.6012 43.8561C37.3994 43.8015 37.2104 43.7078 37.0448 43.5801C36.8793 43.4525 36.7405 43.2936 36.6364 43.1123L35.8625 41.7439C35.6523 41.3778 35.5961 40.9432 35.7062 40.5357C35.8164 40.1282 36.084 39.7812 36.45 39.5709C36.8161 39.3607 37.2507 39.3045 37.6582 39.4146C38.0657 39.5248 38.4127 39.7923 38.623 40.1584L39.3968 41.5268ZM44.0353 35.7228C44.4007 35.9343 44.6672 36.2823 44.776 36.6903C44.8849 37.0982 44.8272 37.5327 44.6157 37.8981C44.4042 38.2636 44.0562 38.53 43.6483 38.6389C43.2403 38.7477 42.8058 38.69 42.4404 38.4785L41.0531 37.6905C40.6858 37.4765 40.4185 37.1254 40.3101 36.7143C40.2017 36.3033 40.2611 35.866 40.4751 35.4987C40.6891 35.1314 41.0402 34.8641 41.4513 34.7557C41.8623 34.6473 42.2996 34.7067 42.6669 34.9207L44.0353 35.7134V35.7228ZM43.1671 19.4858C43.5331 19.2756 43.9677 19.2194 44.3752 19.3295C44.7827 19.4397 45.1298 19.7072 45.34 20.0733C45.5503 20.4394 45.6065 20.8739 45.4963 21.2815C45.3861 21.689 45.1186 22.036 44.7525 22.2463L43.3841 23.039C43.0228 23.2122 42.6094 23.2426 42.2266 23.1242C41.8438 23.0057 41.5199 22.7472 41.3195 22.4001C41.1192 22.0531 41.0572 21.6433 41.1461 21.2525C41.2349 20.8618 41.468 20.519 41.7986 20.2927L43.1671 19.5V19.4858ZM37.6085 14.8709C37.8206 14.5049 38.1694 14.2381 38.5783 14.1292C38.9871 14.0204 39.4224 14.0784 39.7885 14.2905C40.1545 14.5027 40.4213 14.8515 40.5302 15.2604C40.639 15.6692 40.581 16.1045 40.3689 16.4706L39.5761 17.839C39.4711 18.0209 39.3313 18.1803 39.1646 18.3081C38.998 18.4359 38.8078 18.5297 38.605 18.584C38.4021 18.6384 38.1905 18.6522 37.9823 18.6248C37.774 18.5973 37.5733 18.5292 37.3914 18.4241C37.2095 18.3191 37.0501 18.1793 36.9223 18.0126C36.7945 17.846 36.7007 17.6558 36.6464 17.4529C36.592 17.2501 36.5782 17.0385 36.6056 16.8302C36.6331 16.622 36.7012 16.4212 36.8063 16.2394L37.5943 14.8709H37.6085ZM46.5032 26.6677C46.9249 26.6677 47.3294 26.8352 47.6276 27.1334C47.9258 27.4316 48.0934 27.8361 48.0934 28.2579C48.0934 28.6796 47.9258 29.0841 47.6276 29.3823C47.3294 29.6805 46.9249 29.8481 46.5032 29.8481H44.828C44.4063 29.8481 44.0018 29.6805 43.7036 29.3823C43.4054 29.0841 43.2378 28.6796 43.2378 28.2579C43.2378 27.8361 43.4054 27.4316 43.7036 27.1334C44.0018 26.8352 44.4063 26.6677 44.828 26.6677H46.5032Z" fill="white"/>
</svg>
