<svg width="58" height="51" viewBox="0 0 58 51" fill="none" xmlns="http://www.w3.org/2000/svg">
<path fill-rule="evenodd" clip-rule="evenodd" d="M3.89984 0H54.0411C56.1915 0 57.941 1.75893 57.941 3.89983V42.8557C57.941 45.0013 56.182 46.7555 54.0411 46.7555H49.9055C50.4997 45.5813 50.9949 44.3505 51.3862 43.0773H53.6073C53.9091 43.0773 54.1685 42.9594 54.3712 42.7613C54.574 42.5586 54.6872 42.2945 54.6872 41.9974V9.7142H54.7061H3.40941V42.0021C3.40941 42.3039 3.5273 42.5633 3.72536 42.7661C3.92813 42.9688 4.19221 43.082 4.48929 43.082H6.55945C6.95085 44.3599 7.44599 45.586 8.04016 46.7602H3.89984C1.75894 46.7602 9.45977e-06 45.0013 9.45977e-06 42.8604V3.89983C-0.00470617 1.75893 1.75422 0 3.89984 0ZM27.9024 35.0183L36.2066 29.7273C36.2821 29.6708 36.3764 29.6519 36.4613 29.6566C36.5509 29.666 36.6405 29.7085 36.7065 29.7745L37.5081 30.6327C37.5742 30.7035 37.6072 30.7931 37.6119 30.8874C37.6166 30.977 37.5836 31.0713 37.5223 31.1467C35.3861 33.5517 33.3584 36.1123 31.2033 38.489C30.7554 38.97 30.2838 39.2718 29.8264 39.4321C29.2982 39.616 28.7842 39.6019 28.3268 39.4557C28.1146 39.385 27.9165 39.2906 27.7374 39.168C27.5534 39.0454 27.3884 38.8945 27.2422 38.7295L27.2375 38.7248C27.096 38.5597 26.9781 38.3805 26.8838 38.1825C26.7895 37.9891 26.7188 37.7769 26.6811 37.5647V37.5553C26.6009 37.1026 26.648 36.6169 26.8697 36.1595C27.063 35.7492 27.3884 35.3625 27.8741 35.0371L27.9024 35.0183ZM16.5424 50.8911C16.0945 50.4714 15.6701 50.0281 15.2645 49.5613C14.859 49.0944 14.477 48.604 14.1233 48.0994C13.7697 47.5949 13.4396 47.0762 13.1425 46.5386C12.8454 46.0057 12.5719 45.4493 12.322 44.8787C12.0815 44.3222 11.8645 43.7469 11.6806 43.1575C11.4967 42.5727 11.3411 41.9786 11.2138 41.3702V41.3608C11.0912 40.7619 10.9969 40.1583 10.9356 39.5406C10.8743 38.9323 10.8412 38.3145 10.8412 37.7015C10.8412 36.4943 10.9591 35.3106 11.1855 34.1647C11.4166 32.9906 11.7655 31.8541 12.2135 30.7695C12.6709 29.666 13.2368 28.6145 13.8923 27.6336C14.5524 26.6433 15.3117 25.7238 16.151 24.8844C16.9904 24.045 17.91 23.2858 18.905 22.6209C19.8858 21.9654 20.9327 21.4043 22.0362 20.9468C23.1208 20.4988 24.2572 20.1499 25.4314 19.9188C26.5773 19.6925 27.7609 19.5746 28.9681 19.5746C30.1753 19.5746 31.3542 19.6925 32.4954 19.9188C33.6696 20.1499 34.8014 20.4988 35.8812 20.9468C36.9847 21.4043 38.0316 21.9654 39.0077 22.6256C40.0027 23.2905 40.927 24.0544 41.7664 24.8938C42.6057 25.7332 43.365 26.6575 44.0346 27.6525C44.6948 28.6333 45.2559 29.6849 45.7181 30.7884C46.1708 31.873 46.5197 33.0094 46.7508 34.1789C46.9771 35.3201 47.0997 36.499 47.0997 37.7062C47.0997 38.2956 47.0714 38.8804 47.0149 39.4651C46.9583 40.0593 46.8687 40.6393 46.7602 41.2052C46.647 41.7758 46.5056 42.3464 46.3358 42.9075C46.166 43.4734 45.9633 44.0299 45.7416 44.5721C45.5153 45.1192 45.2606 45.652 44.9824 46.1755C44.7042 46.6942 44.4024 47.1988 44.077 47.6845C43.7516 48.1749 43.398 48.6465 43.0254 49.1039C42.6529 49.5613 42.2521 50.0046 41.8324 50.429C41.7569 50.5044 41.6579 50.5421 41.5589 50.5421C41.4598 50.5421 41.3608 50.5044 41.2854 50.429L40.4224 49.566C40.3941 49.5471 40.3705 49.5283 40.347 49.5047L37.8524 47.0148C37.7769 46.9394 37.7392 46.8404 37.7392 46.7413C37.7392 46.6423 37.7769 46.5433 37.8524 46.4678L39.1586 45.1616C39.2341 45.0862 39.3331 45.0484 39.4321 45.0484C39.5312 45.0484 39.6302 45.0862 39.7056 45.1616L41.4316 46.8875C41.573 46.6989 41.7098 46.5008 41.8465 46.2981C42.0304 46.0246 42.2049 45.7463 42.37 45.4728C42.5444 45.1758 42.7142 44.8645 42.8698 44.5486C43.0302 44.2279 43.1763 43.9025 43.3131 43.5724L43.3178 43.563C43.5017 43.115 43.6668 42.6576 43.8082 42.1955C43.9497 41.7381 44.0676 41.2665 44.1619 40.7949C44.2515 40.3517 44.3269 39.8942 44.3741 39.4321C44.4165 39.0501 44.4448 38.6635 44.459 38.2815H42.054C41.9503 38.2815 41.8512 38.2391 41.7805 38.1683C41.7098 38.0976 41.6673 38.0033 41.6673 37.8948V36.0463C41.6673 35.9378 41.7098 35.8435 41.7805 35.7728C41.8512 35.702 41.9456 35.6596 42.054 35.6596H44.3317C44.2326 34.924 44.0817 34.2072 43.8837 33.5046C43.6526 32.6982 43.3602 31.9201 43.016 31.1798C42.6623 30.4253 42.2474 29.699 41.7758 29.0153C41.3514 28.3928 40.8798 27.7986 40.3705 27.2422L38.8427 28.7701C38.7719 28.8172 38.6682 28.8597 38.5739 28.8597C38.4749 28.8597 38.3758 28.8219 38.3004 28.7465L36.9706 27.4167C36.9093 27.3459 36.8762 27.2564 36.8762 27.1668C36.8762 27.0677 36.914 26.9687 36.9894 26.8932L38.4418 25.4408C37.8665 24.9928 37.2535 24.5826 36.6169 24.2195C35.9095 23.8139 35.1645 23.465 34.3958 23.1726L34.3864 23.1679C33.6272 22.885 32.8444 22.6586 32.038 22.4936C31.326 22.3521 30.595 22.2531 29.85 22.2153V24.2996C29.85 24.4034 29.8075 24.5024 29.7368 24.5732C29.666 24.6439 29.5717 24.6863 29.4633 24.6863H27.61C27.5063 24.6863 27.4073 24.6439 27.3365 24.5732C27.2658 24.5024 27.2234 24.4081 27.2234 24.2996V22.2861C26.4924 22.3662 25.7709 22.503 25.073 22.6822C24.2714 22.8897 23.4933 23.1632 22.7482 23.4886C21.9937 23.8187 21.2675 24.2101 20.579 24.6533C19.9566 25.0542 19.3624 25.5021 18.8059 25.9831L20.3338 27.511C20.4093 27.5864 20.447 27.6855 20.447 27.7845C20.447 27.8835 20.4093 27.9826 20.3338 28.058L19.004 29.3878C18.9333 29.4491 18.8437 29.4821 18.7541 29.4821C18.655 29.4821 18.556 29.4444 18.4806 29.369L16.981 27.8694C16.5094 28.4447 16.0756 29.0577 15.6889 29.699C15.2598 30.4064 14.8873 31.1515 14.5807 31.9295L14.576 31.939C14.2742 32.7029 14.029 33.4998 13.8451 34.3156C13.6848 35.0324 13.5763 35.7728 13.5197 36.5226H15.8917C15.9954 36.5226 16.0945 36.565 16.1652 36.6357C16.2359 36.7065 16.2784 36.8008 16.2784 36.9092V38.7625C16.2784 38.8662 16.2359 38.9653 16.1652 39.036C16.0945 39.1067 16.0001 39.1492 15.8917 39.1492H13.5339C13.5669 39.484 13.6046 39.8141 13.6565 40.1347C13.7225 40.545 13.8027 40.9458 13.897 41.3467V41.3561C13.996 41.7758 14.1186 42.1955 14.2554 42.6057C14.3968 43.0301 14.5524 43.4404 14.7269 43.8412C14.8731 44.1808 15.0334 44.5203 15.2126 44.8598L15.2221 44.8787C15.3965 45.2088 15.5805 45.5294 15.7738 45.8454C15.953 46.1377 16.151 46.4348 16.3633 46.7272L16.3727 46.7413C16.5236 46.9488 16.6745 47.1516 16.8348 47.3497L18.7541 45.4304C18.8295 45.3549 18.9286 45.3172 19.0276 45.3172C19.1266 45.3172 19.2256 45.3549 19.3011 45.4304L20.6309 46.7602C20.6922 46.8309 20.7252 46.9205 20.7252 47.0101C20.7252 47.1092 20.6875 47.2082 20.612 47.2836L20.5979 47.2978C19.999 47.8967 19.4143 48.4814 18.8342 49.0709C18.2542 49.6603 17.6789 50.2592 17.0942 50.8769L17.0895 50.8817C17.0187 50.9571 16.9244 50.9948 16.8254 50.9996C16.7311 51.0043 16.632 50.9713 16.5566 50.9005L16.5424 50.8911ZM50.3252 3.15947C51.391 3.15947 52.2539 4.02243 52.2539 5.08817C52.2539 6.1539 51.391 7.01686 50.3252 7.01686C49.2595 7.01686 48.3965 6.1539 48.3965 5.08817C48.3965 4.02243 49.2595 3.15947 50.3252 3.15947ZM37.2582 3.15947C38.3239 3.15947 39.1869 4.02243 39.1869 5.08817C39.1869 6.1539 38.3239 7.01686 37.2582 7.01686C36.1925 7.01686 35.3295 6.1539 35.3295 5.08817C35.3248 4.02243 36.1878 3.15947 37.2582 3.15947ZM43.7894 3.15947C44.8551 3.15947 45.7181 4.02243 45.7181 5.08817C45.7181 6.1539 44.8551 7.01686 43.7894 7.01686C42.7236 7.01686 41.8607 6.1539 41.8607 5.08817C41.8607 4.02243 42.7236 3.15947 43.7894 3.15947Z" fill="white"/>
</svg>
