<svg width="56" height="55" viewBox="0 0 56 55" fill="none" xmlns="http://www.w3.org/2000/svg">
<path d="M54.7739 2.15196C54.9707 2.12569 55.1707 2.16368 55.3436 2.26015C55.4982 2.33192 55.6293 2.44519 55.7219 2.58707C55.8146 2.72894 55.8651 2.89371 55.8677 3.0626L55.9998 20.8924C56.0028 21.0491 55.9645 21.2038 55.8885 21.3414C55.8126 21.479 55.7018 21.5946 55.5669 21.6768L48.2251 26.0092C48.0722 26.121 47.8868 26.1811 47.6965 26.1805H47.5507L28.4785 24.0706C28.2519 24.055 28.0394 23.9561 27.8826 23.7935C27.7258 23.6309 27.636 23.4162 27.6309 23.1916V5.05972C27.6308 4.88678 27.6811 4.71747 27.7756 4.572C27.8702 4.42652 28.005 4.31101 28.1641 4.23924L37.7343 0.0691847C37.8783 0.00993411 38.0352 -0.0117966 38.1901 0.00607045L54.742 2.15196H54.7739ZM18.7716 31.6534L13.5535 34.5927L19.8972 35.3906L24.6687 32.4198L18.7852 31.6534H18.7716ZM12.0222 36.1615L11.7579 43.7848L8.90052 41.8599L6.03856 43.4603L6.62189 35.4763L1.78207 34.8722V51.2233L19.1726 53.1348V37.0677L12.0359 36.166L12.0222 36.1615ZM8.03464 33.9075L13.1251 30.9231L10.6049 30.594L4.14273 33.4025L8.04831 33.8984L8.03464 33.9075ZM20.9636 36.8107V52.5893L26.6009 49.2623L26.4733 33.3575L20.9636 36.8107ZM20.6036 54.8434C20.4412 54.9517 20.2478 55.0055 20.0521 54.9966C20.0036 55.0011 19.9548 55.0011 19.9063 54.9966L0.847832 52.8913C0.617324 52.8753 0.401564 52.7733 0.244199 52.6059C0.0868349 52.4385 -0.000386362 52.2183 0.000180417 51.9897V33.8759C-0.00336644 33.7022 0.0454534 33.5314 0.140416 33.3853C0.235378 33.2392 0.37218 33.1243 0.53338 33.0554L10.1036 28.8854C10.2476 28.8261 10.4045 28.8044 10.5594 28.8222L27.1387 30.9681C27.2707 30.9557 27.4039 30.9692 27.5306 31.0079C27.6573 31.0465 27.7751 31.1095 27.8772 31.1933C27.9792 31.2771 28.0635 31.3799 28.1253 31.496C28.187 31.6121 28.225 31.7391 28.237 31.8698L28.3646 49.6996C28.3722 49.8571 28.3363 50.0138 28.2609 50.1527C28.1854 50.2917 28.0732 50.4077 27.9362 50.4885L20.5945 54.8208L20.6036 54.8434ZM33.8607 49.4696L36.7363 35.0074L39.6484 39.3578C45.9283 36.8603 49.4556 32.7489 49.9797 26.4194C55.1385 35.3411 52.0077 43.343 45.468 48.027L48.4439 52.4631L33.8607 49.4696ZM23.1101 4.70358L20.2344 19.1613L17.3178 14.8154C11.0379 17.3084 7.51055 21.4198 6.98647 27.7538C1.82309 18.8277 4.95848 10.8166 11.4982 6.14619L8.52227 1.71016L23.1055 4.70358H23.1101ZM46.4159 2.8372L41.1887 5.77652L47.5324 6.57446L52.2993 3.60358L46.4159 2.8372ZM39.6712 7.34536L39.4068 14.9732L36.5449 13.0707L33.6875 14.6486L34.2708 6.66914L29.4128 6.05602V22.4071L46.8033 24.3411V8.2515L39.6712 7.34987V7.34536ZM35.6836 5.09128L40.7558 2.11589L38.2402 1.80032L31.778 4.58636L35.6836 5.07775V5.09128ZM48.5852 8.00806V23.7866L54.2316 20.428L54.1177 4.5503L48.5943 7.99453L48.5852 8.00806Z" fill="white"/>
</svg>
