<svg width="58" height="52" viewBox="0 0 58 52" fill="none" xmlns="http://www.w3.org/2000/svg">
<path fill-rule="evenodd" clip-rule="evenodd" d="M28.174 9.9104C28.8348 9.9104 29.4862 9.94828 30.1281 10.024V4.43671C29.8213 4.32307 29.5522 4.14314 29.3257 3.91586C28.9103 3.49918 28.6554 2.93098 28.6554 2.29649C28.6554 1.66673 28.9103 1.09379 29.3257 0.677108C29.741 0.260426 30.3075 0.00473502 30.9399 0.00473502C31.5677 0.00473502 32.1388 0.260426 32.5542 0.677108C32.9696 1.09379 33.2244 1.66199 33.2244 2.29649C33.2244 2.92624 32.9696 3.49918 32.5542 3.91586C32.3324 4.13841 32.0539 4.32307 31.7518 4.43671V10.2939C33.2716 10.6254 34.7113 11.1652 36.0423 11.8802V9.721C36.0423 9.27117 36.4058 8.90657 36.8542 8.90657H42.5371C42.6504 8.61774 42.825 8.35731 43.0422 8.1395C43.4575 7.72282 44.0239 7.46713 44.6564 7.46713C45.2842 7.46713 45.8553 7.72282 46.2707 8.1395C46.686 8.55618 46.9409 9.12439 46.9409 9.75888C46.9409 10.3886 46.686 10.9616 46.2707 11.3783C45.8553 11.7949 45.2889 12.0506 44.6564 12.0506C44.0239 12.0506 43.4528 11.7949 43.0469 11.3783C42.8109 11.1415 42.6268 10.8527 42.5135 10.5307H37.6755V12.8793C41.055 15.2278 43.5283 18.7933 44.4629 22.9459H54.7715V14.5981C54.5213 14.4844 54.29 14.3234 54.1012 14.1293C53.6859 13.7126 53.431 13.1444 53.431 12.5099C53.431 11.8802 53.6859 11.3072 54.1012 10.8905C54.5166 10.4739 55.083 10.2182 55.7155 10.2182C56.3433 10.2182 56.9144 10.4739 57.3298 10.8905C57.7451 11.3072 58 11.8754 58 12.5099C58 13.1397 57.7451 13.7126 57.3298 14.1293C57.0702 14.3897 56.7492 14.5839 56.3952 14.6975V23.7651C56.3952 24.2149 56.0317 24.5795 55.5833 24.5795H44.7508C44.8358 25.2613 44.8783 25.9574 44.8783 26.6676C44.8783 27.6146 44.798 28.5427 44.647 29.4471H53.5726C53.6859 29.1393 53.8652 28.8694 54.0918 28.6421C54.5072 28.2255 55.0736 27.9698 55.7061 27.9698C56.3338 27.9698 56.905 28.2255 57.3203 28.6421C57.7357 29.0588 57.9906 29.627 57.9906 30.2615C57.9906 30.8913 57.7357 31.4642 57.3203 31.8809C56.905 32.2976 56.3385 32.5533 55.7061 32.5533C55.0783 32.5533 54.5072 32.2976 54.0918 31.8809C53.87 31.6584 53.6859 31.3837 53.5726 31.0759H44.293C43.2451 34.9302 40.8662 38.2306 37.6755 40.4465V41.4646H42.5135C42.6268 41.1426 42.8109 40.8538 43.0469 40.617C43.4528 40.2003 44.0286 39.9446 44.6564 39.9446C45.2889 39.9446 45.8553 40.2003 46.2707 40.617C46.686 41.0337 46.9409 41.6066 46.9409 42.2364C46.9409 42.8709 46.686 43.4391 46.2707 43.8558C45.8553 44.2724 45.2842 44.5281 44.6564 44.5281C44.0239 44.5281 43.4575 44.2724 43.0422 43.8558C42.8298 43.6427 42.6551 43.3823 42.5371 43.0887H36.8589C36.4105 43.0887 36.047 42.7241 36.047 42.2743V41.4456C34.716 42.1606 33.2716 42.7004 31.7565 43.0319V47.5586C32.0633 47.6722 32.3371 47.8569 32.5589 48.0794C32.9743 48.4961 33.2292 49.069 33.2292 49.6988C33.2292 50.3333 32.9743 50.9015 32.5589 51.3182C32.1436 51.7348 31.5724 51.9905 30.9447 51.9905C30.3122 51.9905 29.7458 51.7348 29.3304 51.3182C28.915 50.9015 28.6602 50.3285 28.6602 49.6988C28.6602 49.0643 28.915 48.4961 29.3304 48.0794C29.557 47.8521 29.826 47.6722 30.1328 47.5586V43.3065C29.4909 43.3823 28.8395 43.4201 28.1787 43.4201C27.1922 43.4201 26.2246 43.3349 25.2853 43.1692V49.5757C25.2853 50.0255 24.9219 50.3901 24.4735 50.3901H15.4298C15.3166 50.75 15.123 51.0719 14.8634 51.3276C14.4481 51.7443 13.877 52 13.2492 52C12.6167 52 12.0503 51.7443 11.6349 51.3276C11.2196 50.9109 10.9647 50.338 10.9647 49.7083C10.9647 49.0738 11.2196 48.5056 11.6349 48.0889C12.0503 47.6722 12.6214 47.4165 13.2492 47.4165C13.8817 47.4165 14.4481 47.6722 14.8634 48.0889C15.057 48.283 15.2127 48.5103 15.3307 48.7612H23.6569V42.7999C22.104 42.3642 20.6408 41.7061 19.305 40.8632C19.1587 40.9958 18.9699 41.0763 18.7575 41.0763H13.8203C13.707 41.3746 13.5277 41.6398 13.3058 41.8576C12.8905 42.2743 12.3193 42.53 11.6916 42.53C11.0638 42.53 10.4927 42.2743 10.0773 41.8576C9.66195 41.4456 9.40706 40.8727 9.40706 40.2382C9.40706 39.6037 9.66195 39.0355 10.0773 38.6188C10.4927 38.2021 11.0638 37.9465 11.6916 37.9465C12.3193 37.9465 12.8905 38.2021 13.3058 38.6188C13.5371 38.8508 13.7212 39.1349 13.8345 39.4475H17.3792C14.3018 36.829 12.1825 33.1167 11.6208 28.9026H3.22852V37.2551C3.47868 37.3688 3.70996 37.5298 3.89876 37.7239C4.31413 38.1406 4.56901 38.7088 4.56901 39.3433C4.56901 39.973 4.31413 40.546 3.89876 40.9627C3.4834 41.3793 2.91699 41.635 2.28451 41.635C1.65674 41.635 1.08561 41.3793 0.670247 40.9627C0.254883 40.5507 0 39.9778 0 39.3433C0 38.7135 0.254883 38.1406 0.670247 37.7239C0.92985 37.4635 1.25081 37.2694 1.60482 37.1557V28.0929C1.60482 27.6431 1.96826 27.2785 2.41667 27.2785H11.4792C11.4697 27.0749 11.4697 26.8712 11.4697 26.6676C11.4697 25.195 11.6585 23.7698 12.0125 22.4109H4.42269C4.30941 22.7186 4.13005 22.9885 3.90348 23.2158C3.48812 23.6325 2.92171 23.8882 2.28923 23.8882C1.66146 23.8882 1.09033 23.6325 0.674967 23.2158C0.259603 22.7991 0.00472005 22.2309 0.00472005 21.5964C0.00472005 20.9667 0.259603 20.3937 0.674967 19.9771C1.09033 19.5604 1.65674 19.3047 2.28923 19.3047C2.91699 19.3047 3.48812 19.5604 3.90348 19.9771C4.12533 20.1996 4.30941 20.4742 4.42269 20.782H12.527C13.6221 17.851 15.5148 15.3131 17.9362 13.4285V12.5573H13.8298C13.7165 12.8698 13.5324 13.1539 13.3011 13.3859C12.8857 13.8026 12.3146 14.0583 11.6868 14.0583C11.0591 14.0583 10.488 13.8026 10.0726 13.3859C9.65723 12.9692 9.40234 12.401 9.40234 11.7665C9.40234 11.132 9.65723 10.5591 10.0726 10.1472C10.488 9.73047 11.0591 9.47478 11.6868 9.47478C12.3146 9.47478 12.8857 9.73047 13.3011 10.1472C13.5229 10.3697 13.6976 10.6349 13.8156 10.9284H18.7528C19.2012 10.9284 19.5646 11.293 19.5646 11.7429V12.3111C20.8296 11.5487 22.2031 10.9474 23.6522 10.5354V3.23875H15.3307C15.2174 3.48971 15.057 3.72173 14.8634 3.91113C14.4481 4.32781 13.8817 4.5835 13.2492 4.5835C12.6214 4.5835 12.0503 4.32781 11.6349 3.91113C11.2196 3.49445 10.9647 2.92624 10.9647 2.29175C10.9647 1.66199 11.2196 1.08905 11.6349 0.672373C12.0503 0.255691 12.6167 0 13.2492 0C13.877 0 14.4481 0.255691 14.8634 0.672373C15.123 0.932799 15.3166 1.25478 15.4298 1.60991H24.4688C24.9172 1.60991 25.2806 1.9745 25.2806 2.42433V10.1614C26.2199 9.99563 27.1875 9.9104 28.174 9.9104ZM21.4526 24.9914H22.7884V24.8304V22.1646C22.7884 20.64 23.4115 19.2573 24.4121 18.2535C25.4128 17.2497 26.7957 16.6247 28.3156 16.6247C29.8355 16.6247 31.2137 17.2497 32.2144 18.2535C33.215 19.2573 33.8381 20.6447 33.8381 22.1646V24.8304V24.9914H34.9001C35.1361 24.9914 35.3296 25.1856 35.3296 25.4223V34.542C35.3296 34.7787 35.1361 34.9729 34.9001 34.9729H21.4526C21.2166 34.9729 21.0231 34.7787 21.0231 34.542V25.4223C21.0231 25.1856 21.2166 24.9914 21.4526 24.9914ZM24.9313 24.9914H31.6857V24.8304V22.1362C31.6857 21.2034 31.3034 20.3559 30.6945 19.7403C30.0809 19.1247 29.236 18.7459 28.3109 18.7459C27.381 18.7459 26.5361 19.1295 25.9225 19.7403C25.3089 20.3559 24.9313 21.2034 24.9313 22.1362V24.8304V24.9914ZM28.3392 29.9822L29.0189 33.1404L27.1497 33.1451L27.6973 29.9443C27.1875 29.7785 26.8146 29.3003 26.8146 28.7321C26.8146 28.0313 27.381 27.4631 28.0796 27.4631C28.7782 27.4631 29.3446 28.0313 29.3446 28.7321C29.354 29.3524 28.915 29.8638 28.3392 29.9822Z" fill="white"/>
</svg>
